<?xml version="1.0" standalone="no"?>
<!DOCTYPE svg PUBLIC "-//W3C//DTD SVG 20010904//EN"
 "http://www.w3.org/TR/2001/REC-SVG-20010904/DTD/svg10.dtd">
<svg version="1.0" xmlns="http://www.w3.org/2000/svg"
 width="360.000000pt" height="360.000000pt" viewBox="0 0 360.000000 360.000000"
 preserveAspectRatio="xMidYMid meet">
<metadata>
Created by potrace 1.14, written by Peter Selinger 2001-2017
</metadata>
<g transform="translate(0.000000,360.000000) scale(0.100000,-0.100000)"
fill="#000000" stroke="none">
<path d="M0 3244 c0 -398 -6 -373 68 -292 19 21 38 36 42 33 4 -3 10 5 13 16
3 12 10 18 16 14 15 -9 14 8 -1 25 -7 7 5 0 27 -17 63 -49 138 -130 131 -142
-4 -5 -72 -54 -152 -108 l-146 -97 4 -357 4 -357 26 -39 c14 -21 62 -78 107
-127 106 -116 106 -123 3 -195 -42 -30 -92 -65 -109 -78 l-33 -24 0 -673 c0
-667 0 -674 21 -700 11 -14 26 -23 32 -20 8 5 8 3 0 -6 -10 -11 -16 -10 -33 5
-20 18 -20 18 -20 -38 0 -48 2 -55 17 -50 11 4 14 3 9 -5 -19 -32 31 -3 152
87 147 109 166 126 108 92 -22 -12 -48 -20 -59 -17 -13 3 -17 0 -13 -10 7 -19
-4 -18 -19 3 -12 17 -16 16 -54 -5 -23 -13 -41 -21 -41 -18 0 2 61 50 135 105
85 64 140 98 150 95 8 -3 15 -1 15 6 0 6 -6 8 -13 5 -24 -12 21 22 318 244
697 522 905 674 911 668 3 -2 -7 -12 -20 -21 -38 -25 -65 -57 -60 -71 3 -7 0
-16 -7 -21 -7 -4 -10 -3 -6 2 3 5 -3 10 -14 10 -18 0 -18 -2 -5 -12 16 -11 23
-74 9 -74 -5 -1 -19 -10 -32 -21 -22 -18 -23 -21 -7 -38 16 -17 13 -21 -64
-80 -82 -62 -103 -74 -79 -44 9 11 3 9 -19 -6 -18 -12 -30 -26 -27 -31 7 -12
-23 -33 -36 -24 -7 4 -9 3 -5 -4 8 -13 -100 -96 -114 -87 -6 4 -9 1 -8 -6 4
-16 -61 -61 -76 -52 -6 3 -8 3 -4 -2 4 -4 3 -14 -3 -22 -14 -16 -33 -18 -23
-1 4 7 3 8 -5 4 -6 -4 -9 -11 -6 -16 7 -11 -52 -53 -64 -46 -5 3 -20 -3 -32
-15 l-24 -20 28 17 c55 33 25 3 -61 -61 -85 -63 -111 -77 -96 -53 5 9 3 9 -9
-1 -9 -7 -15 -17 -12 -21 6 -10 -173 -143 -183 -136 -5 3 -21 -4 -38 -15 -16
-10 -25 -19 -21 -19 4 0 19 7 32 16 54 35 21 2 -50 -51 -83 -61 -108 -72 -55
-24 l35 31 -35 -25 c-19 -13 -35 -31 -35 -38 0 -8 -10 -14 -22 -15 -12 -1 -55
-26 -95 -56 -40 -30 -93 -69 -117 -86 l-44 -32 193 0 c168 0 191 2 175 14 -16
12 -17 16 -6 30 11 13 11 16 0 16 -12 0 -12 2 0 9 8 5 20 7 28 4 9 -4 16 3 20
16 6 24 13 26 33 9 7 -7 4 1 -7 17 -11 17 -23 37 -26 45 -3 9 -6 6 -6 -9 -1
-13 -4 -21 -8 -18 -3 4 -11 0 -17 -9 -10 -13 -14 -12 -35 8 -25 22 -13 40 12
20 16 -13 42 1 32 17 -4 7 -16 9 -28 6 -49 -14 -76 -28 -71 -36 3 -5 9 -7 13
-5 4 3 8 -8 8 -24 0 -26 -4 -30 -29 -30 -15 0 -28 -4 -28 -10 0 -5 -13 -10
-29 -10 -44 0 -35 25 23 70 12 9 17 10 12 3 -4 -9 -1 -13 9 -13 11 0 15 5 12
14 -4 10 22 36 76 77 45 34 138 105 207 157 69 53 130 99 137 104 8 6 51 -35
135 -128 67 -75 124 -140 126 -144 2 -5 -5 -6 -15 -4 -11 3 -28 -5 -42 -20
-26 -28 -23 -32 12 -15 15 7 13 2 -8 -15 -37 -31 -40 -32 -42 -4 -1 11 -7 24
-13 28 -8 5 -7 9 4 13 20 8 21 27 1 27 -8 0 -15 7 -15 15 0 20 -39 20 -46 0
-7 -17 -24 -20 -24 -4 0 10 -24 39 -33 39 -2 0 -2 -10 0 -23 7 -35 -19 -61
-50 -53 -20 5 -27 13 -27 31 0 24 -9 30 -40 25 -18 -2 -31 -21 -23 -33 3 -4
-5 -11 -17 -14 -16 -4 -18 -8 -9 -14 8 -5 20 -2 29 6 16 14 60 10 60 -5 0 -5
3 -16 7 -26 4 -12 3 -15 -5 -10 -7 4 -12 1 -12 -8 0 -9 -4 -16 -10 -16 -5 0
-10 6 -10 14 0 8 -7 17 -16 20 -22 9 -23 8 -17 -14 4 -14 0 -20 -10 -20 -9 0
-21 -8 -26 -18 -9 -14 -12 -14 -20 -3 -6 9 -11 10 -15 2 -10 -16 -36 -13 -36
4 0 9 -6 12 -15 9 -19 -8 -20 -24 -1 -24 7 0 16 -9 19 -20 4 -17 2 -18 -15 -9
-14 7 -23 7 -34 -1 -7 -7 -25 -10 -39 -8 -17 4 -25 1 -25 -8 0 -8 4 -14 10
-14 5 0 7 -7 4 -15 -5 -13 76 -15 682 -14 379 0 681 4 670 8 -16 6 -14 11 20
38 55 42 100 70 91 56 -4 -6 -3 -14 3 -18 5 -3 10 -2 10 3 0 5 9 12 21 15 13
4 18 10 14 17 -6 9 -9 9 -15 0 -5 -7 -10 -8 -13 -2 -4 5 10 21 31 35 l36 27
43 -42 c24 -24 41 -48 39 -54 -3 -7 2 -10 13 -7 10 3 33 -12 60 -39 58 -57 42
-30 -35 58 -69 80 -93 117 -70 108 8 -3 17 0 22 7 4 8 3 10 -4 5 -7 -4 -12 -5
-12 -2 0 3 59 51 131 108 73 57 179 141 238 187 208 164 221 172 238 156 19
-19 47 -19 63 0 10 12 10 19 2 27 -14 14 -16 72 -3 64 4 -3 19 3 31 14 28 24
73 25 120 2 44 -22 52 -58 19 -83 -27 -20 -20 -36 8 -21 10 6 67 47 126 91 60
45 107 77 105 72 -1 -5 -49 -46 -106 -91 -57 -45 -106 -88 -108 -95 -3 -8 -12
-11 -20 -8 -7 3 -25 -5 -40 -16 -32 -25 -24 -28 11 -5 27 18 32 9 11 -18 -7
-10 -17 -14 -22 -10 -9 7 28 -33 121 -132 l50 -53 50 40 c28 21 69 57 93 79
40 38 62 42 62 13 0 -7 -24 -30 -52 -51 -29 -21 -72 -54 -95 -73 l-43 -35 32
-33 c17 -18 30 -34 27 -36 -2 -2 -47 -37 -99 -78 -52 -41 -135 -106 -185 -144
-49 -38 -94 -72 -99 -77 -6 -4 76 -8 182 -8 174 1 192 3 192 18 0 10 61 65
145 132 80 63 157 132 171 153 l26 39 -33 34 c-39 40 -31 59 9 21 36 -35 48
-34 68 6 9 17 27 45 40 60 22 26 24 38 24 137 l0 109 -60 46 c-32 25 -86 78
-118 118 -33 39 -80 92 -106 117 -25 25 -46 48 -46 51 0 5 137 120 267 224 36
28 63 58 63 68 0 18 -50 -18 -312 -221 -58 -45 -83 -48 -76 -7 4 20 -3 17 -61
-25 -37 -27 -96 -71 -131 -99 -36 -27 -66 -46 -68 -41 -2 6 -12 6 -24 -1 -11
-6 -17 -13 -14 -16 3 -4 -15 -21 -42 -38 -26 -18 -62 -46 -79 -63 l-33 -30
-30 34 c-38 44 -38 52 1 46 19 -3 29 -1 26 5 -4 5 7 20 23 32 23 16 28 17 23
5 -3 -9 6 -4 21 11 16 15 33 24 42 21 19 -7 30 20 15 38 -9 11 -9 16 0 22 7 4
19 -3 30 -17 19 -25 17 -27 34 26 7 22 43 18 50 -6 7 -20 8 -20 26 -3 15 14
17 20 7 26 -9 6 -6 8 7 4 13 -4 31 3 50 20 21 18 23 21 5 10 -31 -20 -41 -20
-34 -1 4 8 2 15 -4 15 -20 0 -22 32 -3 58 10 15 16 33 14 40 -3 6 0 12 7 12 6
0 8 -4 5 -10 -8 -13 5 -13 25 0 13 8 12 11 -5 24 -11 9 -16 16 -11 16 5 0 -1
12 -15 27 -37 42 5 10 73 -56 65 -62 87 -66 32 -5 -20 21 -45 50 -57 63 l-22
24 22 -12 c18 -9 22 -9 18 1 -3 7 9 21 26 31 18 10 29 20 26 24 -11 10 13 44
39 53 13 5 24 16 24 24 0 7 11 21 25 30 14 9 23 21 20 26 -4 6 -1 10 5 10 6 0
9 4 6 9 -3 4 29 9 72 10 106 2 137 9 168 37 20 20 29 22 40 13 15 -12 20 1 5
17 -5 5 -6 59 -1 124 10 150 13 556 4 547 -4 -4 -15 6 -25 22 -32 53 -63 65
-171 69 l-98 4 7 27 c8 34 32 71 47 71 6 0 5 4 -3 9 -8 5 -11 16 -8 26 4 9 11
13 17 10 5 -3 10 1 10 10 0 10 5 15 14 12 9 -4 12 2 10 19 -1 13 1 22 6 19 16
-10 38 7 51 36 7 18 17 28 25 25 8 -3 13 -2 12 2 -5 18 15 50 37 62 14 7 25
19 25 27 0 7 9 13 21 13 11 0 18 4 14 9 -3 5 -1 12 5 16 6 4 10 78 10 196 l0
190 -87 -64 c-90 -66 -156 -109 -138 -90 6 5 58 45 118 87 l107 78 0 140 c0
134 -1 140 -18 126 -9 -9 -71 -54 -137 -100 -66 -47 -185 -132 -265 -189 -80
-58 -182 -130 -226 -162 l-81 -56 -84 76 -84 77 79 -81 78 -81 -53 -39 c-219
-159 -368 -263 -380 -263 -7 0 -47 33 -89 73 l-75 72 74 -76 c40 -42 72 -82
70 -88 -2 -5 -71 -58 -153 -116 -165 -116 -147 -111 -326 -105 l-65 1 -137
137 c-103 102 -138 131 -138 116 0 -29 -112 -108 -140 -99 -11 3 -20 12 -20
18 0 13 308 233 320 230 4 -1 47 31 96 72 49 41 112 86 141 101 29 14 82 53
119 85 37 32 71 60 75 60 5 1 13 2 18 3 12 2 151 100 151 107 0 14 -182 179
-191 174 -5 -3 -6 0 -4 8 3 7 -3 22 -15 32 -11 10 -20 29 -20 42 0 15 -4 22
-11 17 -7 -4 -10 -1 -7 7 3 8 -2 19 -10 25 -8 6 -14 23 -14 38 0 19 -5 26 -14
22 -11 -4 -14 5 -12 42 l3 47 -260 2 -260 2 138 -133 137 -133 0 -100 c0 -148
-2 -153 -71 -196 -32 -20 -63 -37 -68 -37 -5 0 -16 -6 -23 -12 -20 -19 -170
-93 -181 -90 -5 1 -15 -2 -23 -9 -8 -6 -21 -8 -30 -5 -13 5 -15 20 -12 86 2
50 -1 80 -7 80 -6 0 -86 74 -179 165 -93 91 -171 165 -173 165 -2 0 -164 -109
-360 -242 l-356 -241 -66 69 c-72 75 -103 112 -84 101 7 -4 21 2 32 15 12 12
21 19 21 15 0 -4 16 9 36 28 20 19 39 35 44 35 4 0 25 17 47 38 21 21 45 36
51 34 7 -2 12 2 12 10 0 7 10 21 23 30 48 36 155 114 188 137 38 28 219 182
219 187 0 2 -191 4 -425 4 l-425 0 0 -356z m3285 -233 c-7 -12 -135 -102 -135
-96 0 4 132 104 138 105 2 0 1 -4 -3 -9z m-50 -181 c-3 -5 -16 -15 -28 -21
-19 -9 -19 -8 3 10 28 23 34 26 25 11z m-1521 -85 c22 -17 18 -24 -36 -61 -23
-16 -92 -64 -152 -107 -109 -77 -136 -85 -122 -35 3 13 23 36 44 51 170 128
225 167 235 167 7 0 20 -7 31 -15z m-1554 -569 c0 -3 -4 -8 -10 -11 -5 -3 -10
-1 -10 4 0 6 5 11 10 11 6 0 10 -2 10 -4z m60 -21 c-26 -28 -45 -32 -53 -11
-8 20 13 36 47 36 l29 0 -23 -25z m30 -40 c-35 -35 -66 -62 -69 -60 -2 3 8 18
22 33 15 16 27 34 27 42 0 23 32 50 59 50 23 0 20 -5 -39 -65z m310 61 c0 -3
-4 -8 -10 -11 -5 -3 -10 -1 -10 4 0 6 5 11 10 11 6 0 10 -2 10 -4z m60 -21
c-26 -28 -45 -32 -53 -11 -8 20 13 36 47 36 l29 0 -23 -25z m30 -40 c-35 -35
-66 -62 -69 -60 -2 3 8 18 22 33 15 16 27 34 27 42 0 23 32 50 59 50 23 0 20
-5 -39 -65z m225 -25 c-49 -49 -93 -90 -98 -90 -5 0 25 36 65 81 40 44 75 84
76 90 2 5 13 9 25 9 17 0 3 -19 -68 -90z m43 -29 c-67 -65 -125 -117 -127
-115 -2 2 3 12 12 22 10 10 17 24 17 30 0 6 29 35 65 63 36 28 62 55 59 61
-11 17 38 58 69 58 27 0 19 -9 -95 -119z m153 71 c-30 -26 -110 -103 -178
-172 -67 -69 -123 -120 -123 -113 0 6 59 69 130 139 72 71 130 135 130 143 0
26 32 51 64 51 l31 -1 -54 -47z m89 8 c-52 -46 -60 -49 -53 -17 9 36 34 57 67
57 l31 -1 -45 -39z m70 -9 c-30 -27 -57 -47 -59 -45 -3 2 1 10 7 16 7 7 12 19
12 27 0 26 32 51 64 51 l31 -1 -55 -48z m110 41 c0 -4 -31 -39 -70 -77 -38
-38 -70 -65 -70 -59 0 5 16 25 35 44 19 19 35 41 35 49 0 21 30 51 52 51 10 0
18 -3 18 -8z m90 -6 c-6 -8 -18 -12 -26 -9 -23 9 -16 23 12 23 22 0 24 -2 14
-14z m56 -22 c-34 -30 -41 -32 -49 -19 -13 24 19 55 57 55 l31 -1 -39 -35z
m34 -43 c-89 -82 -124 -102 -52 -28 23 24 42 49 42 57 0 24 32 50 64 50 29 0
27 -3 -54 -79z m150 66 c-8 -7 -71 -67 -139 -133 -68 -65 -119 -110 -113 -99
6 11 47 56 91 100 45 44 81 86 81 94 0 25 32 51 64 51 26 0 28 -2 16 -13z m50
-27 c-52 -46 -60 -49 -53 -17 9 36 34 57 67 57 l31 -1 -45 -39z m80 0 c-52
-46 -60 -49 -53 -17 9 36 34 57 67 57 l31 -1 -45 -39z m65 -14 c-57 -51 -88
-68 -52 -28 10 10 17 25 17 32 0 25 33 50 64 50 l31 0 -60 -54z m-27 -106
c-121 -129 -239 -240 -254 -240 -4 0 7 15 24 33 18 18 29 36 25 40 -9 10 47
67 67 67 19 0 202 181 234 231 16 26 22 29 24 16 2 -11 -41 -64 -120 -147z
m229 143 c-16 -16 -18 -16 -34 0 -16 16 -15 17 17 17 32 0 33 -1 17 -17z m88
8 c-3 -5 -23 -24 -45 -41 -38 -30 -39 -30 -38 -8 2 34 27 58 60 58 16 0 27 -4
23 -9z m150 -11 c-14 -15 -21 -17 -32 -9 -22 19 -15 29 19 29 30 0 31 0 13
-20z m95 16 c0 -2 -23 -23 -51 -46 l-50 -43 7 29 c10 42 33 64 66 64 15 0 28
-2 28 -4z m305 -16 c-14 -15 -21 -17 -32 -9 -22 19 -15 29 19 29 30 0 31 0 13
-20z m95 16 c0 -2 -23 -23 -51 -46 l-50 -43 7 29 c10 42 33 64 66 64 15 0 28
-2 28 -4z m145 -16 c-14 -15 -21 -17 -32 -9 -22 19 -15 29 19 29 30 0 31 0 13
-20z m95 16 c0 -2 -23 -23 -51 -46 l-50 -43 7 29 c10 42 33 64 66 64 15 0 28
-2 28 -4z m305 -16 c-14 -15 -21 -17 -32 -9 -22 19 -15 29 19 29 30 0 31 0 13
-20z m95 16 c0 -2 -23 -23 -51 -46 l-50 -43 7 29 c10 42 33 64 66 64 15 0 28
-2 28 -4z m-1318 -109 c-40 -39 -72 -68 -72 -63 0 12 132 147 139 141 3 -3
-27 -38 -67 -78z m258 18 c-24 -25 -49 -45 -54 -45 -6 0 12 22 39 50 27 27 51
47 54 45 3 -3 -15 -26 -39 -50z m352 -50 c-96 -101 -192 -191 -192 -180 0 4
10 21 23 38 12 17 27 41 32 52 6 11 26 29 44 40 19 11 66 50 105 87 39 37 72
65 75 63 2 -2 -37 -47 -87 -100z m288 50 c-24 -25 -49 -45 -54 -45 -6 0 12 22
39 50 27 27 51 47 54 45 3 -3 -15 -26 -39 -50z m351 -51 c-138 -146 -224 -218
-169 -142 13 18 28 42 33 53 6 11 26 29 44 40 19 11 66 50 105 87 39 37 72 65
75 63 2 -2 -38 -48 -88 -101z m-3111 11 c-30 -30 -56 -52 -59 -50 -3 3 19 30
49 60 30 30 56 52 59 50 3 -3 -19 -30 -49 -60z m374 -27 c-223 -232 -274 -282
-274 -266 0 9 25 44 55 76 30 33 55 63 55 68 0 13 43 54 57 54 7 0 13 5 13 10
0 6 6 10 13 10 7 0 44 31 82 70 38 38 71 67 74 65 2 -3 -31 -42 -75 -87z m623
-17 c-48 -49 -87 -84 -87 -79 0 12 162 179 168 173 3 -3 -34 -45 -81 -94z
m701 69 c-5 -15 -260 -270 -270 -270 -5 0 0 12 10 28 10 15 22 36 28 47 6 11
33 36 59 55 27 19 76 61 110 92 62 60 69 65 63 48z m159 -88 c-42 -42 -77 -73
-77 -68 0 12 142 157 149 151 3 -3 -30 -40 -72 -83z m313 76 c0 -7 -23 -32
-50 -56 -28 -24 -50 -40 -50 -37 0 11 82 105 92 105 4 0 8 -6 8 -12z m640 0
c0 -7 -23 -32 -50 -56 -28 -24 -50 -40 -50 -37 0 11 82 105 92 105 4 0 8 -6 8
-12z m-358 -121 c-62 -61 -112 -105 -112 -98 0 16 211 223 219 215 3 -3 -45
-55 -107 -117z m640 0 c-62 -61 -112 -106 -112 -98 0 16 212 223 219 215 3 -3
-45 -55 -107 -117z m-3038 84 c6 -9 -64 -71 -79 -71 -4 0 8 18 25 40 32 41 44
47 54 31z m225 -181 c-159 -165 -174 -179 -177 -154 -4 30 38 80 98 117 19 12
82 68 139 124 57 57 106 101 109 98 2 -2 -74 -86 -169 -185z m1926 180 c6 -10
-205 -223 -213 -215 -3 2 9 20 26 39 17 19 33 43 36 53 3 10 21 27 40 37 20
10 47 36 61 57 26 40 39 47 50 29z m640 0 c6 -10 -205 -223 -213 -215 -3 2 9
20 26 39 17 19 33 43 36 53 3 10 21 27 40 37 20 10 47 36 61 57 26 40 39 47
50 29z m-1848 -101 c-95 -100 -175 -174 -182 -167 -3 3 6 15 20 28 14 13 25
30 25 39 0 17 59 81 75 81 6 0 40 27 75 59 36 32 67 57 69 55 2 -2 -35 -44
-82 -95z m-908 67 c9 -11 3 -21 -31 -49 -23 -20 -44 -34 -46 -33 -4 5 52 96
59 96 4 0 12 -6 18 -14z m1185 -28 c-49 -56 -144 -142 -144 -130 0 14 160 175
167 168 3 -3 -7 -20 -23 -38z m342 -60 c-92 -97 -123 -124 -133 -114 -3 3 43
53 103 110 60 58 111 103 113 101 2 -2 -36 -46 -83 -97z m515 -48 c-113 -116
-137 -135 -139 -117 -3 16 20 44 96 117 55 52 107 107 115 121 12 20 22 25 40
22 21 -4 10 -19 -112 -143z m640 0 c-113 -116 -137 -135 -139 -117 -3 16 20
44 96 117 55 52 107 107 115 121 12 20 22 25 40 22 21 -4 10 -19 -112 -143z
m-907 58 c-76 -81 -104 -104 -104 -89 0 14 161 173 168 167 3 -3 -26 -39 -64
-78z m411 9 c-43 -40 -91 -85 -105 -101 -14 -17 -59 -64 -100 -105 -68 -69
-74 -74 -78 -52 -3 18 9 37 50 78 29 29 63 56 76 60 23 5 132 118 132 137 0
23 44 56 74 56 30 -1 29 -3 -49 -73z m640 0 c-43 -40 -93 -88 -110 -107 -16
-19 -61 -66 -100 -105 -63 -64 -69 -68 -73 -46 -4 28 71 111 124 136 33 15
134 120 134 139 0 23 44 56 74 56 30 -1 29 -3 -49 -73z m-422 -21 c-82 -87
-133 -132 -133 -117 0 13 192 202 199 196 2 -2 -28 -38 -66 -79z m638 -2 c-81
-86 -121 -121 -121 -104 0 13 182 191 189 185 2 -3 -29 -39 -68 -81z m-2997
57 c16 -6 12 -13 -33 -50 -55 -47 -59 -46 -35 2 30 58 34 61 68 48z m31 -65
c-72 -66 -93 -77 -56 -30 11 15 21 31 21 37 0 23 44 57 74 57 31 -1 30 -1 -39
-64z m237 2 c-28 -29 -54 -49 -57 -46 -3 3 17 29 46 57 29 28 55 49 58 46 3
-3 -18 -29 -47 -57z m1638 30 c-30 -27 -35 -29 -38 -14 -6 32 6 46 40 46 l33
-1 -35 -31z m640 0 c-30 -27 -35 -29 -38 -14 -6 32 6 46 40 46 l33 -1 -35 -31z
m-2009 -5 c-6 -10 -44 -52 -86 -93 -59 -59 -75 -70 -75 -54 0 14 30 50 81 99
76 73 103 89 80 48z m339 -63 c-90 -100 -140 -133 -100 -67 19 31 161 159 169
151 2 -2 -29 -40 -69 -84z m217 -28 c-77 -77 -93 -89 -95 -72 -5 29 157 191
175 175 8 -7 -14 -35 -80 -103z m41 -37 c-124 -125 -133 -133 -136 -108 -4 28
-5 26 134 154 16 15 39 41 52 58 17 22 32 31 53 31 28 0 21 -9 -103 -135z
m614 58 c-28 -32 -66 -74 -86 -92 -36 -35 -36 -35 -36 -10 0 15 13 37 33 56
46 45 131 112 136 107 2 -2 -19 -29 -47 -61z m668 32 c-7 -8 -17 -15 -23 -15
-5 0 -2 9 8 20 21 23 35 19 15 -5z m640 0 c-7 -8 -17 -15 -23 -15 -5 0 -2 9 8
20 21 23 35 19 15 -5z m-2565 -95 c-103 -103 -110 -109 -113 -84 -5 38 148
191 193 193 28 1 23 -6 -80 -109z m45 -30 c-78 -77 -147 -140 -153 -140 -7 0
-7 4 1 12 7 7 12 19 12 28 0 21 88 106 123 119 15 6 33 23 39 38 20 48 59 83
91 83 28 0 19 -10 -113 -140z m150 70 c-74 -68 -119 -97 -67 -42 15 15 27 34
27 42 0 27 52 70 84 70 30 -1 29 -2 -44 -70z m-385 20 c-10 -11 -23 -20 -28
-20 -6 0 0 11 13 25 27 29 42 25 15 -5z m617 -27 c-17 -21 -56 -63 -86 -93
-50 -48 -56 -52 -56 -31 0 32 50 93 113 134 28 19 54 34 56 32 2 -2 -10 -21
-27 -42z m578 24 c0 -16 -118 -132 -126 -124 -10 10 25 64 65 100 43 39 61 46
61 24z m870 -10 c0 -7 -25 -37 -55 -67 -73 -72 -74 -29 -2 48 32 33 57 42 57
19z m640 0 c0 -16 -97 -113 -106 -105 -7 8 20 53 55 91 26 29 51 36 51 14z
m-1210 -8 c0 -7 -38 -51 -85 -98 -82 -84 -85 -85 -85 -56 0 24 11 41 48 76 81
78 122 104 122 78z m-326 -100 c-62 -64 -84 -77 -84 -50 0 11 26 48 57 82 54
58 58 60 67 40 8 -19 2 -29 -40 -72z m936 67 c0 -7 -33 -44 -72 -82 -67 -64
-73 -67 -76 -45 -3 18 11 38 59 87 57 58 89 72 89 40z m640 0 c0 -7 -33 -44
-72 -82 -67 -64 -73 -67 -76 -45 -3 18 11 38 59 87 57 58 89 72 89 40z m-2113
-39 c-18 -27 -140 -137 -153 -137 -4 0 -3 5 4 12 7 7 12 20 12 29 0 25 130
143 143 130 7 -7 5 -18 -6 -34z m-797 11 c0 -15 -139 -148 -153 -148 -6 0 -3
8 6 18 10 10 17 25 17 34 0 8 22 36 50 62 48 45 80 58 80 34z m1599 -90 c-61
-55 -101 -79 -66 -40 10 10 17 25 17 34 0 8 24 37 53 64 51 48 52 48 56 24 2
-20 -9 -36 -60 -82z m634 -5 c-56 -51 -94 -72 -60 -35 10 10 17 25 17 32 0 8
21 36 48 63 l47 48 3 -28 c3 -23 -6 -37 -55 -80z m640 0 c-56 -51 -94 -72 -60
-35 10 10 17 25 17 32 0 8 21 36 48 63 l47 48 3 -28 c3 -23 -6 -37 -55 -80z
m-1843 85 c0 -14 -129 -138 -144 -138 -5 0 -2 8 6 18 9 9 14 22 11 28 -2 6 19
32 46 57 49 46 81 59 81 35z m370 -28 c0 -18 -106 -117 -115 -108 -3 3 1 11
10 18 8 7 15 20 15 28 0 20 70 93 82 86 4 -3 8 -14 8 -24z m490 11 c0 -19
-116 -128 -126 -119 -2 3 2 11 11 18 8 7 15 20 15 28 0 19 69 92 87 92 7 0 13
-9 13 -19z m640 0 c0 -19 -116 -128 -126 -119 -2 3 2 11 11 18 8 7 15 20 15
28 0 19 69 92 87 92 7 0 13 -9 13 -19z m-1720 -34 c0 -16 -14 -35 -41 -56 -22
-18 -42 -31 -45 -28 -2 2 2 10 11 17 8 7 15 19 15 28 0 17 38 62 52 62 4 0 8
-10 8 -23z m-810 -12 c0 -8 -15 -28 -32 -44 -36 -33 -62 -43 -35 -13 10 10 17
25 17 32 0 18 31 51 41 44 5 -3 9 -11 9 -19z m408 7 c2 -6 -14 -27 -35 -47
-40 -36 -68 -49 -40 -17 10 10 17 25 17 32 0 18 31 51 44 47 5 -2 12 -9 14
-15z m595 -58 c-29 -24 -56 -33 -35 -12 7 7 12 19 12 27 0 8 10 26 23 39 l22
24 3 -28 c3 -20 -4 -33 -25 -50z m635 -4 c-25 -21 -50 -28 -30 -8 7 7 12 19
12 27 0 8 8 23 18 34 17 19 17 19 20 -7 2 -18 -4 -33 -20 -46z m-218 31 c0
-10 -11 -26 -25 -35 -29 -19 -44 -21 -27 -4 7 7 12 19 12 28 0 20 20 41 32 34
4 -3 8 -13 8 -23z m454 -32 c-9 -10 -22 -19 -28 -19 -6 0 -5 5 2 12 7 7 12 19
12 28 0 9 6 22 13 29 20 20 22 -27 1 -50z m399 -5 c-22 -17 -41 -18 -25 -2 7
7 12 19 12 28 0 9 6 22 13 29 10 10 13 7 15 -14 2 -17 -3 -32 -15 -41z m241 5
c-9 -10 -22 -19 -28 -19 -6 0 -5 5 2 12 7 7 12 19 12 28 0 9 6 22 13 29 20 20
22 -27 1 -50z m400 0 c-9 -10 -22 -19 -27 -19 -6 0 -3 8 6 18 10 10 17 25 17
34 0 25 15 31 18 8 2 -12 -4 -30 -14 -41z m-2797 -105 c-38 -34 -176 -123
-171 -110 3 9 12 16 19 16 7 0 23 10 36 23 13 12 41 34 62 47 20 14 40 33 43
44 5 15 8 16 15 5 5 -9 4 -18 -4 -25z m433 -3 c35 -35 72 -43 193 -41 51 1
128 1 172 0 l80 -1 -26 -22 c-14 -12 -75 -58 -135 -101 -60 -44 -152 -111
-204 -150 -308 -227 -339 -248 -349 -244 -11 4 -241 251 -240 258 1 15 352
256 384 264 20 6 49 22 63 37 15 14 28 27 30 28 2 0 17 -12 32 -28z m609 -24
c-14 -12 -43 -35 -65 -52 -91 -71 -91 -80 1 -16 94 67 125 82 125 62 0 -5 -34
-35 -76 -66 -41 -31 -79 -68 -84 -81 -5 -13 -14 -24 -20 -24 -6 0 -8 6 -4 13
6 9 4 9 -7 1 -8 -6 -21 -14 -29 -18 -8 -3 -5 -4 8 -2 12 2 22 3 22 1 0 -2
-129 -99 -287 -216 -159 -117 -302 -223 -319 -236 l-31 -23 -46 53 -46 54 135
99 c75 54 163 120 197 145 99 74 329 243 362 266 43 30 76 38 86 22 7 -11 9
-10 9 4 0 10 4 16 8 13 5 -3 21 6 38 19 38 31 61 14 23 -18z m-911 -16 l57 -6
-225 -161 c-124 -88 -257 -184 -296 -212 -79 -58 -113 -72 -40 -17 l46 36 0
69 c0 74 11 91 54 83 18 -3 19 -2 3 5 -18 7 -18 9 -2 22 14 12 18 12 26 -1 8
-11 9 -11 7 3 -2 12 38 47 132 116 129 94 136 98 158 84 12 -8 48 -17 80 -21z
m866 -117 c5 -14 4 -15 -9 -4 -17 14 -19 20 -6 20 5 0 12 -7 15 -16z m-34
-301 c-24 -21 -57 -46 -73 -56 -25 -16 -29 -23 -25 -55 3 -20 -2 -53 -10 -72
-8 -19 -15 -57 -16 -84 -1 -30 -6 -51 -13 -54 -7 -2 -13 -8 -13 -13 0 -14 28
-11 33 4 3 7 6 4 6 -6 1 -10 6 -15 11 -12 6 4 10 -9 9 -32 -1 -21 -3 -29 -6
-18 -7 28 -16 35 -33 25 -12 -7 -11 -14 5 -44 11 -20 22 -36 26 -36 3 0 5 -21
4 -46 -2 -35 -8 -49 -25 -61 -21 -15 -23 -15 -17 -1 8 22 -12 18 -49 -10 -21
-16 -26 -24 -16 -30 13 -9 -9 -34 -61 -67 -41 -26 -43 -12 -2 17 l35 25 -29 1
c-20 0 -28 -3 -25 -12 3 -7 -2 -19 -11 -26 -8 -7 -15 -20 -15 -30 0 -10 -23
-33 -52 -53 -29 -20 -74 -52 -100 -71 l-46 -35 -131 142 c-72 77 -129 142
-128 142 1 1 79 60 172 130 618 469 710 536 595 438z m1343 -19 c-8 -20 -22
-17 -20 5 0 10 7 17 13 14 7 -3 10 -11 7 -19z m-35 -12 c2 -6 -6 -10 -17 -9
-22 1 -26 8 -14 21 9 9 26 3 31 -12z m312 -102 c0 -18 -19 -11 -30 11 -11 19
-10 20 9 9 12 -6 21 -15 21 -20z m-1915 -60 c-3 -5 -11 -10 -16 -10 -6 0 -7 5
-4 10 3 6 11 10 16 10 6 0 7 -4 4 -10z m215 -51 c0 -24 -4 -38 -10 -34 -17 10
-11 75 7 75 2 0 3 -18 3 -41z m1690 -119 c0 -5 -2 -10 -4 -10 -3 0 -8 5 -11
10 -3 6 -1 10 4 10 6 0 11 -4 11 -10z m339 -87 c1 -1 1 -7 -1 -14 -4 -11 -108
80 -108 95 0 4 24 -12 53 -36 28 -23 54 -44 56 -45z m-339 27 c0 -5 -4 -10
-10 -10 -5 0 -10 5 -10 10 0 6 5 10 10 10 6 0 10 -4 10 -10z m105 -70 c-3 -5
-12 -10 -18 -10 -7 0 -6 4 3 10 19 12 23 12 15 0z m-2965 -404 c0 -3 -15 -14
-32 -26 l-33 -22 30 26 c31 27 35 29 35 22z m2800 1 c0 -5 -152 -122 -170
-131 -8 -4 -2 3 14 15 16 13 54 44 85 71 50 42 71 55 71 45z m-2960 -31 c0 -3
-4 -8 -10 -11 -5 -3 -10 -1 -10 4 0 6 5 11 10 11 6 0 10 -2 10 -4z m2934 -47
c-10 -12 -32 -30 -49 -41 -18 -12 -12 -4 15 21 49 44 64 53 34 20z m-2238 -4
c-6 -16 4 -20 20 -7 5 4 -4 -5 -21 -20 -33 -30 -55 -37 -34 -11 12 15 12 16
-3 11 -10 -4 -19 -1 -22 8 -5 14 4 18 37 15 9 -1 17 3 17 8 0 6 3 11 6 11 3 0
4 -7 0 -15z m-146 -29 c0 -8 -4 -18 -10 -21 -5 -3 -10 -4 -10 -1 0 2 -3 11 -6
20 -4 11 -1 16 10 16 9 0 16 -6 16 -14z m-340 -36 c0 -5 -4 -10 -10 -10 -5 0
-10 5 -10 10 0 6 5 10 10 10 6 0 10 -4 10 -10z m150 0 c0 -5 -4 -10 -10 -10
-5 0 -10 5 -10 10 0 6 5 10 10 10 6 0 10 -4 10 -10z"/>
<path d="M1077 1444 c-4 -4 -7 -14 -7 -23 0 -11 3 -12 11 -4 6 6 10 16 7 23
-2 6 -7 8 -11 4z"/>
<path d="M1491 914 c0 -11 3 -14 6 -6 3 7 2 16 -1 19 -3 4 -6 -2 -5 -13z"/>
<path d="M1450 770 c0 -5 5 -10 10 -10 6 0 10 5 10 10 0 6 -4 10 -10 10 -5 0
-10 -4 -10 -10z"/>
<path d="M1050 620 c0 -5 5 -10 10 -10 6 0 10 5 10 10 0 6 -4 10 -10 10 -5 0
-10 -4 -10 -10z"/>
<path d="M1410 510 c0 -5 5 -10 11 -10 5 0 7 5 4 10 -3 6 -8 10 -11 10 -2 0
-4 -4 -4 -10z"/>
<path d="M1210 360 c0 -5 5 -10 10 -10 6 0 10 5 10 10 0 6 -4 10 -10 10 -5 0
-10 -4 -10 -10z"/>
<path d="M1046 303 c-14 -15 -3 -23 29 -23 29 0 33 2 24 13 -13 14 -43 19 -53
10z"/>
<path d="M1151 279 c-13 -11 -21 -22 -18 -25 3 -3 18 6 34 20 32 30 19 35 -16
5z"/>
<path d="M1211 3563 c18 -21 35 -40 36 -42 3 -5 113 69 113 75 0 2 -41 4 -92
4 l-92 0 35 -37z"/>
<path d="M2170 3362 c0 -11 194 -202 206 -202 5 0 25 14 44 31 21 19 25 25 10
15 -54 -35 -57 -35 -57 -21 0 8 4 12 9 9 4 -3 8 0 8 5 0 11 -4 12 -38 15 -18
1 -91 56 -76 56 5 0 -2 7 -14 16 -20 13 -21 18 -10 32 11 15 11 15 -4 4 -14
-11 -20 -10 -37 5 -12 9 -21 23 -21 30 0 7 -4 13 -10 13 -5 0 -10 -3 -10 -8z"/>
<path d="M2592 3115 c43 -44 80 -77 83 -74 3 3 -32 39 -77 79 l-83 73 77 -78z"/>
<path d="M2110 2837 c68 -69 170 -158 135 -118 -11 13 -60 59 -110 104 -87 78
-88 78 -25 14z"/>
<path d="M2964 975 c-10 -8 -14 -15 -8 -15 6 0 17 7 24 15 16 19 9 19 -16 0z"/>
<path d="M1262 916 c-41 -29 -48 -36 -36 -36 5 0 25 14 44 30 42 35 38 38 -8
6z"/>
<path d="M1190 859 c0 -5 5 -7 10 -4 6 3 10 8 10 11 0 2 -4 4 -10 4 -5 0 -10
-5 -10 -11z"/>
<path d="M1154 834 c-18 -14 -18 -15 4 -4 12 6 22 13 22 15 0 8 -5 6 -26 -11z"/>
<path d="M723 516 c-46 -35 -61 -42 -72 -33 -12 10 -14 9 -8 -5 3 -9 1 -19 -6
-21 -7 -2 -10 -7 -7 -10 3 -3 39 19 80 49 83 61 86 64 78 64 -4 0 -33 -20 -65
-44z"/>
<path d="M509 353 c-13 -16 -12 -17 4 -4 9 7 17 15 17 17 0 8 -8 3 -21 -13z"/>
<path d="M2510 364 c0 -5 26 -34 57 -64 49 -48 53 -50 26 -15 -38 49 -83 92
-83 79z"/>
<path d="M3502 320 c0 -14 2 -19 5 -12 2 6 2 18 0 25 -3 6 -5 1 -5 -13z"/>
<path d="M393 290 c2 -8 -10 -25 -27 -37 -16 -13 -26 -23 -20 -23 5 0 21 10
36 23 22 17 26 25 17 37 -9 13 -10 13 -6 0z"/>
<path d="M297 271 c-4 -17 -2 -18 25 -9 22 8 26 13 16 19 -21 14 -35 10 -41
-10z"/>
<path d="M1003 235 c7 -14 18 -25 26 -25 10 0 7 8 -9 25 -29 31 -31 31 -17 0z"/>
<path d="M730 169 c0 -5 5 -7 10 -4 6 3 10 8 10 11 0 2 -4 4 -10 4 -5 0 -10
-5 -10 -11z"/>
<path d="M629 168 c-5 -17 -4 -48 2 -48 8 0 29 33 29 44 0 6 -29 9 -31 4z"/>
<path d="M3577 162 c-10 -2 -16 -11 -15 -19 2 -9 -3 -18 -11 -21 -9 -3 -11 0
-6 8 14 23 -12 7 -96 -60 l-82 -65 113 -3 c62 -1 114 -1 117 1 2 3 3 40 1 83
-3 70 -5 79 -21 76z"/>
<path d="M2037 154 c-16 -16 -6 -34 16 -30 12 1 22 9 22 17 0 15 -27 24 -38
13z"/>
<path d="M550 136 c0 -9 5 -16 10 -16 6 0 10 4 10 9 0 6 -4 13 -10 16 -5 3
-10 -1 -10 -9z"/>
<path d="M1945 80 c-3 -5 -1 -10 4 -10 6 0 11 5 11 10 0 6 -2 10 -4 10 -3 0
-8 -4 -11 -10z"/>
<path d="M2099 53 c-13 -16 -12 -17 4 -4 16 13 21 21 13 21 -2 0 -10 -8 -17
-17z"/>
<path d="M2010 45 c0 -8 5 -15 10 -15 6 0 10 7 10 15 0 8 -4 15 -10 15 -5 0
-10 -7 -10 -15z"/>
<path d="M1890 32 c0 -5 7 -13 16 -16 10 -4 14 -1 12 6 -5 15 -28 23 -28 10z"/>
<path d="M1936 32 c-2 -4 -1 -14 5 -22 7 -12 9 -10 9 8 0 23 -5 28 -14 14z"/>
</g>
</svg>
